<svg xmlns="http://www.w3.org/2000/svg" version="1.1" xmlns:xlink="http://www.w3.org/1999/xlink" xmlns:svgjs="http://svgjs.com/svgjs" width="1980" height="1080" preserveAspectRatio="none" viewBox="0 0 1980 1080"><g mask="url(&quot;#SvgjsMask1031&quot;)" fill="none"><rect width="1980" height="1080" x="0" y="0" fill="rgba(245, 245, 245, 1)"></rect><path d="M0,558.829C122.712,587.786,255.11,627.538,370.186,576.02C489.529,522.592,572.559,404.832,617.92,282.195C661.681,163.885,627.409,37.059,616.004,-88.568C603.916,-221.718,652.432,-390.958,549.105,-475.803C441.696,-564,276.901,-451.647,140.623,-478.918C22.632,-502.53,-64.103,-642.544,-182.709,-622.25C-300.855,-602.035,-355.517,-466.467,-438.371,-379.851C-526.218,-288.015,-647.996,-220.242,-683.878,-98.327C-721.493,29.479,-717.974,185.562,-635.598,290.268C-554.213,393.714,-393.936,373.087,-272.692,424.317C-177.399,464.581,-100.685,535.07,0,558.829" fill="#c4c4c4"></path><path d="M1980 1847.174C2131.913 1833.262 2292.465 1848.367 2421.011 1766.226 2549.692 1683.999 2613.418 1537.103 2680.179 1399.761 2748.46 1259.292 2830.025 1115.494 2812.784 960.264 2795.3360000000002 803.1700000000001 2688.941 674.837 2586.312 554.627 2483.04 433.664 2366.792 324.56600000000003 2219.28 265.08900000000006 2061.794 201.591 1886.411 158.55200000000002 1723.599 206.77999999999997 1560.9270000000001 254.96699999999998 1433.855 384.12199999999996 1340.096 525.52 1253.333 656.3679999999999 1221.098 813.386 1217.295 970.34 1213.8020000000001 1114.498 1277.627 1243.676 1319.353 1381.7069999999999 1368.4070000000002 1543.98 1345.248 1754.413 1483.8310000000001 1852.0529999999999 1621.835 1949.2849999999999 1811.887 1862.5700000000002 1980 1847.174" fill="#ffffff"></path></g><defs><mask id="SvgjsMask1031"><rect width="1980" height="1080" fill="#ffffff"></rect></mask></defs></svg>